<svg width="35" height="35" viewBox="0 0 35 35" fill="none" xmlns="http://www.w3.org/2000/svg">
<path fill-rule="evenodd" clip-rule="evenodd" d="M18.7959 27.9992C19.2016 27.9992 19.5304 27.6704 19.5304 27.2648C19.5304 26.8592 19.2016 26.5304 18.7959 26.5304C18.3903 26.5304 18.0615 26.8592 18.0615 27.2648C18.0615 27.6704 18.3903 27.9992 18.7959 27.9992ZM4.94678 29.6779H13.3402V32.8255H4.94678V29.6779ZM20.6845 29.6779H29.0779V32.8255H20.6845V29.6779Z" fill="#DBE1E4"/>
<path fill-rule="evenodd" clip-rule="evenodd" d="M17.5369 1L33.6605 10.6741C34.0157 10.8873 34.1308 11.348 33.9177 11.7031C33.7046 12.0583 33.2439 12.1735 32.8887 11.9604L17.5369 2.74929L2.18506 11.9604C1.82987 12.1735 1.36918 12.0583 1.15607 11.7031C0.942955 11.348 1.05813 10.8873 1.41331 10.6741L17.5369 1ZM5.47132 12.6656C5.88553 12.6656 6.22132 13.0014 6.22132 13.4156V32.6001H13.3401V24.432C13.3401 22.1142 15.2191 20.2353 17.5369 20.2353C19.8547 20.2353 21.7336 22.1142 21.7336 24.432V32.6001H28.8525V13.4156C28.8525 13.0014 29.1883 12.6656 29.6025 12.6656C30.0167 12.6656 30.3525 13.0014 30.3525 13.4156V32.6001H33.7992C34.2134 32.6001 34.5492 32.9358 34.5492 33.3501C34.5492 33.7643 34.2134 34.1001 33.7992 34.1001H29.6025H5.47132H0.75C0.335786 34.1001 0 33.7643 0 33.3501C0 32.9358 0.335786 32.6001 0.75 32.6001H4.72132V13.4156C4.72132 13.0014 5.0571 12.6656 5.47132 12.6656ZM20.2336 32.3746V24.432C20.2336 22.9427 19.0262 21.7353 17.5369 21.7353C16.0475 21.7353 14.8401 22.9427 14.8401 24.432V32.3746H20.2336Z" fill="#1B2223"/>
<rect x="14.3894" y="9.2189" width="6.29508" height="6.29508" rx="1" fill="#D1362F"/>
</svg>
