<svg width="35" height="35" viewBox="0 0 35 35" fill="none" xmlns="http://www.w3.org/2000/svg">
<path d="M17.3766 1.00899C17.4271 1.003 17.4745 1 17.5184 1C17.472 1.00244 17.4247 1.00544 17.3766 1.00899C15.7006 1.20751 10.5038 4.6903 10.0184 11C9.61839 16.2 15.5184 23.5 18.5184 26.5C15.3517 24.5 7.90003 19.1 7.50003 11.5C7.10589 4.01137 14.1408 1.24782 17.3766 1.00899Z" fill="#DBE1E4"/>
<path fill-rule="evenodd" clip-rule="evenodd" d="M17.5 1.75C21.8164 1.75 26.3185 4.16786 27.0657 10.1452C27.4286 13.0487 25.9115 16.3462 23.6875 19.4531C21.8494 22.021 19.6071 24.3512 17.8098 26.0612C16.0126 24.3512 13.7702 22.021 11.9321 19.4531C9.70814 16.3462 8.191 13.0487 8.55394 10.1452C9.3011 4.16785 13 2 17.5 1.75ZM17.5 0.100006V0.0971265C23 0 27.7013 3.13648 28.5541 9.95915C28.9912 13.4557 27.175 17.1581 24.9073 20.3262C22.6165 23.5265 19.747 26.3426 17.8156 28.106L17.8098 28.0997L17.804 28.106C15.8727 26.3426 13.0031 23.5265 10.7124 20.3262C8.44465 17.1581 6.62846 13.4556 7.06552 9.95914C7.91835 3.13648 12.2623 0.100003 17.5 0.100006Z" fill="#1B2223"/>
<path d="M30 30.5H6L5 33.5H31L30 30.5Z" fill="#DBE1E4"/>
<path fill-rule="evenodd" clip-rule="evenodd" d="M7.06047 24.9466C7.29867 24.232 7.96741 23.75 8.72066 23.75H10.9999C11.4141 23.75 11.7499 24.0858 11.7499 24.5C11.7499 24.9142 11.4141 25.25 10.9999 25.25H8.72066C8.61305 25.25 8.51752 25.3189 8.48349 25.4209L6.15016 32.4209C6.0962 32.5828 6.21669 32.75 6.38733 32.75H29.6843C29.8496 32.75 29.9694 32.5924 29.9251 32.4331L27.9807 25.4331C27.9506 25.3249 27.8521 25.25 27.7398 25.25H24.4999C24.0857 25.25 23.7499 24.9142 23.7499 24.5C23.7499 24.0858 24.0857 23.75 24.4999 23.75H27.7398C28.5259 23.75 29.2156 24.2742 29.426 25.0316L31.3704 32.0316C31.6802 33.1467 30.8416 34.25 29.6843 34.25H6.38733C5.19286 34.25 4.3494 33.0798 4.72713 31.9466L7.06047 24.9466Z" fill="#1B2223"/>
<circle cx="17.7" cy="11" r="3.5" fill="#D1362F"/>
</svg>
