<svg width="12" height="12" viewBox="0 0 12 12" fill="none" xmlns="http://www.w3.org/2000/svg">
<path d="M11.7795 9.3999L9.04127 6.91027C8.91183 6.79263 8.74175 6.72988 8.56692 6.73529C8.39209 6.74069 8.22621 6.81382 8.10429 6.93923L6.49236 8.59697C6.10436 8.52287 5.32434 8.2797 4.5214 7.47879C3.71847 6.67518 3.4753 5.89313 3.40322 5.50783L5.05961 3.89523C5.18518 3.77339 5.25841 3.60748 5.26382 3.4326C5.26923 3.25773 5.20638 3.08761 5.08857 2.95825L2.59962 0.220734C2.48177 0.0909691 2.31797 0.0122571 2.14302 0.00131473C1.96807 -0.00962763 1.79574 0.0480617 1.66264 0.162131L0.200923 1.4157C0.084465 1.53258 0.014955 1.68814 0.00557874 1.85287C-0.00452528 2.02127 -0.197175 6.01034 2.896 9.10486C5.59445 11.8026 8.97458 12 9.9055 12C10.0416 12 10.1251 11.996 10.1473 11.9946C10.312 11.9854 10.4675 11.9156 10.5838 11.7986L11.8367 10.3362C11.9512 10.2035 12.0093 10.0313 11.9986 9.8564C11.988 9.68146 11.9093 9.51763 11.7795 9.3999Z" fill="#222222"/>
</svg>
