<svg width="50" height="50" viewBox="0 0 50 50" fill="none" xmlns="http://www.w3.org/2000/svg">
<path fill-rule="evenodd" clip-rule="evenodd" d="M25 48C37.7025 48 48 37.7025 48 25C48 12.2975 37.7025 2 25 2C12.2975 2 2 12.2975 2 25C2 37.7025 12.2975 48 25 48ZM25 50C38.8071 50 50 38.8071 50 25C50 11.1929 38.8071 0 25 0C11.1929 0 0 11.1929 0 25C0 38.8071 11.1929 50 25 50Z" fill="#07BC65"/>
<circle cx="25" cy="25" r="18.75" fill="#07BC65"/>
<path d="M23.8697 30.3249C23.1613 31.0375 22.0118 31.0375 21.3038 30.3249L17.3282 26.3255C16.6198 25.6132 16.6198 24.4569 17.3282 23.7446C18.0362 23.032 19.1857 23.032 19.8941 23.7446L22.2628 26.1271C22.4416 26.3066 22.7319 26.3066 22.911 26.1271L29.3246 19.6751C30.0327 18.9625 31.1822 18.9625 31.8906 19.6751C32.2308 20.0173 32.4219 20.4816 32.4219 20.9656C32.4219 21.4495 32.2308 21.9138 31.8906 22.256L23.8697 30.3249Z" fill="white"/>
</svg>
