<svg width="14" height="13" viewBox="0 0 14 13" fill="none" xmlns="http://www.w3.org/2000/svg">
<path fill-rule="evenodd" clip-rule="evenodd" d="M2.33301 0.666672C1.22844 0.666672 0.333008 1.7753 0.333008 3.14286V9.74604C0.333008 11.1136 1.22844 12.2222 2.33301 12.2222H11.6663C12.7709 12.2222 13.6663 11.1136 13.6663 9.74604V3.14286C13.6663 1.7753 12.7709 0.666672 11.6663 0.666672H2.33301ZM2.66386 2.54217C2.34419 2.33921 1.93696 2.46261 1.75429 2.8178C1.57162 3.17298 1.68268 3.62546 2.00236 3.82842L6.66892 6.7913C6.87387 6.92143 7.12548 6.92143 7.33043 6.7913L11.997 3.82842C12.3167 3.62546 12.4277 3.17298 12.2451 2.8178C12.0624 2.46261 11.6552 2.33921 11.3355 2.54217L6.99967 5.29505L2.66386 2.54217Z" fill="#222222"/>
</svg>
