<svg width="35" height="35" viewBox="0 0 35 35" fill="none" xmlns="http://www.w3.org/2000/svg">
<path d="M24.5592 6H10.5L11.5 4L14 2.5H27.5L30 3.5L35 17.5L32.5 22L28.3772 8.8069C27.8553 7.137 26.3088 6 24.5592 6Z" fill="#DBE1E4"/>
<path d="M35 14.2188C35 15.0952 34.6514 15.9119 34.0506 16.5143C34.7317 17.2594 35.0788 18.2584 34.9839 19.2982C34.8133 21.1518 33.1435 22.6043 31.1806 22.6043H22.1725C22.6187 23.9591 23.3333 26.4426 23.3333 28.4376C23.3333 31.6007 20.6456 34.2709 18.9583 34.2709C17.4446 34.2709 16.361 33.4177 16.3158 33.3827C16.1422 33.2442 16.0416 33.0342 16.0416 32.8126V27.8674L11.8402 18.7688L11.6666 18.6799V18.9584C11.6666 19.3609 11.3399 19.6876 10.9374 19.6876H3.64581C1.63481 19.6876 0 18.0527 0 16.0418V4.37506C0 2.364 1.63481 0.729252 3.64581 0.729252H8.02081C9.59725 0.729252 10.9447 1.7355 11.4522 3.13988C12.6656 2.51569 14.2989 2.18756 15.3125 2.18756H28.6986C30.2867 2.18756 31.6765 3.258 32.0031 4.73381C32.1708 5.49506 32.0731 6.26069 31.7406 6.92569C32.8169 7.46675 33.5417 8.57944 33.5417 9.84381C33.5417 10.3601 33.4236 10.8544 33.2004 11.3007C34.2767 11.8432 35 12.9544 35 14.2188ZM31.9244 12.4193C31.6429 12.3857 31.4052 12.1947 31.3148 11.9249C31.2259 11.6551 31.3003 11.3591 31.5073 11.1636C31.8778 10.8151 32.0834 10.3455 32.0834 9.84381C32.0834 8.92363 31.3878 8.15069 30.4676 8.04425C30.1861 8.01069 29.9484 7.81969 29.858 7.54988C29.7691 7.28006 29.8434 6.98407 30.0505 6.78863C30.5303 6.33657 30.7228 5.70219 30.5784 5.04881C30.3991 4.23506 29.6086 3.64587 28.6986 3.64587H15.3125C14.1283 3.64587 12.1421 4.2015 11.4538 4.89131C11.2452 5.09837 10.9302 5.15962 10.6589 5.04881C10.3863 4.9365 10.2083 4.66962 10.2083 4.37506C10.2083 3.169 9.22688 2.18756 8.02081 2.18756H3.64581C2.43975 2.18756 1.45831 3.169 1.45831 4.37506V16.0418C1.45831 17.2478 2.43975 18.2293 3.64581 18.2293H10.2083V17.5001C10.2083 17.2477 10.3396 17.013 10.5554 16.8788C10.7683 16.7505 11.0366 16.7374 11.2641 16.8482L12.7224 17.5774C12.8697 17.6503 12.9879 17.7728 13.0579 17.923L17.4329 27.4022C17.4766 27.4984 17.4999 27.6034 17.4999 27.7084V32.4174C17.8033 32.5851 18.3298 32.8126 18.9583 32.8126C19.7575 32.8126 21.875 30.8263 21.875 28.4376C21.875 25.8709 20.4779 22.1711 20.4648 22.1346C20.3803 21.9115 20.4094 21.6592 20.545 21.4609C20.6821 21.264 20.9067 21.1459 21.1458 21.1459H31.1806C32.3969 21.1459 33.4294 20.2752 33.5314 19.164C33.6087 18.3327 33.2091 17.5423 32.4931 17.1004C32.27 16.9634 32.1373 16.7154 32.1475 16.4515C32.1577 16.1876 32.3094 15.9513 32.5427 15.8302C33.1596 15.5167 33.5416 14.8984 33.5416 14.2188C33.5417 13.2986 32.8461 12.5257 31.9244 12.4193Z" fill="#1B2223"/>
<path d="M10.9377 18.2292C10.5352 18.2292 10.2085 17.9025 10.2085 17.5V4.37499C10.2085 3.97249 10.5352 3.64581 10.9377 3.64581C11.3402 3.64581 11.6669 3.97249 11.6669 4.37499V17.5C11.6669 17.9025 11.3402 18.2292 10.9377 18.2292Z" fill="#1B2223"/>
<path d="M5 6C5 7.10457 5.89543 8 7 8C8.10457 8 9 7.10457 9 6C9 4.89543 8.10457 4 7 4C5.89543 4 5 4.89543 5 6Z" fill="#D1362F"/>
</svg>
