<svg width="35" height="35" viewBox="0 0 35 35" fill="none" xmlns="http://www.w3.org/2000/svg">
<g id="other-ico">
<g id="ico">
<g id="Other details">
<path id="Union" fill-rule="evenodd" clip-rule="evenodd" d="M3.36377 4.73389C3.36377 3.76739 4.14727 2.98389 5.11377 2.98389H14.4217C15.3882 2.98389 16.1717 3.76739 16.1717 4.73389V14.0418C16.1717 15.0083 15.3882 15.7918 14.4217 15.7918H5.11377C4.14727 15.7918 3.36377 15.0083 3.36377 14.0418V4.73389ZM5.11377 4.48389C4.9757 4.48389 4.86377 4.59582 4.86377 4.73389V14.0418C4.86377 14.1798 4.9757 14.2918 5.11377 14.2918H14.4217C14.5597 14.2918 14.6717 14.1798 14.6717 14.0418V4.73389C14.6717 4.59582 14.5597 4.48389 14.4217 4.48389H5.11377ZM19.8333 21.4224C19.8333 20.4559 20.6168 19.6724 21.5833 19.6724H30.8911C31.8576 19.6724 32.6411 20.4559 32.6411 21.4224V30.7303C32.6411 31.6968 31.8576 32.4803 30.8911 32.4803H21.5833C20.6168 32.4803 19.8333 31.6968 19.8333 30.7303V21.4224ZM21.5833 21.1724C21.4452 21.1724 21.3333 21.2843 21.3333 21.4224V30.7303C21.3333 30.8683 21.4452 30.9803 21.5833 30.9803H30.8911C31.0292 30.9803 31.1411 30.8683 31.1411 30.7303V21.4224C31.1411 21.2843 31.0292 21.1724 30.8911 21.1724H21.5833ZM5 19.6724C4.0335 19.6724 3.25 20.4559 3.25 21.4224V30.7303C3.25 31.6968 4.0335 32.4803 5 32.4803H14.3079C15.2744 32.4803 16.0579 31.6968 16.0579 30.7303V21.4224C16.0579 20.4559 15.2744 19.6724 14.3079 19.6724H5ZM4.75 21.4224C4.75 21.2843 4.86193 21.1724 5 21.1724H14.3079C14.446 21.1724 14.5579 21.2843 14.5579 21.4224V30.7303C14.5579 30.8683 14.446 30.9803 14.3079 30.9803H5C4.86193 30.9803 4.75 30.8683 4.75 30.7303V21.4224Z" fill="#1B2223"/>
</g>
<g id="Change Color">
<path id="Subtract" fill-rule="evenodd" clip-rule="evenodd" d="M19.8333 4.72998C19.8333 3.76348 20.6168 2.97998 21.5833 2.97998H30.8911C31.8576 2.97998 32.6411 3.76348 32.6411 4.72998V14.0379C32.6411 15.0044 31.8576 15.7879 30.8911 15.7879H21.5833C20.6168 15.7879 19.8333 15.0044 19.8333 14.0379V4.72998ZM25.6399 6.81177C25.6399 6.46133 25.924 6.17725 26.2744 6.17725C26.6249 6.17725 26.9089 6.46133 26.9089 6.81177V8.61229H28.7108C29.0612 8.61229 29.3453 8.89638 29.3453 9.24682C29.3453 9.59726 29.0612 9.88135 28.7108 9.88135H26.9089V11.6824C26.9089 12.0329 26.6249 12.317 26.2744 12.317C25.924 12.317 25.6399 12.0329 25.6399 11.6824V9.88135H23.8401C23.4897 9.88135 23.2056 9.59726 23.2056 9.24682C23.2056 8.89638 23.4897 8.61229 23.8401 8.61229H25.6399V6.81177Z" fill="#D1362F"/>
</g>
</g>
</g>
</svg>
