<svg width="35" height="35" viewBox="0 0 35 35" fill="none" xmlns="http://www.w3.org/2000/svg">
<path fill-rule="evenodd" clip-rule="evenodd" d="M6.12891 7.16124L9.22568 6.12904V32.9677H6.12891V7.16124ZM16.4515 30.9032H20.5805V32.9677H16.4515V30.9032ZM28.8386 30.9032H24.7095V32.9677H28.8386V30.9032Z" fill="#DBE1E4"/>
<path fill-rule="evenodd" clip-rule="evenodd" d="M21.8468 2.70131C21.8468 1.84268 21.001 1.23969 20.1893 1.51959L5.37903 6.62658V32.7423H2C1.58579 32.7423 1.25 33.0781 1.25 33.4923C1.25 33.9065 1.58579 34.2423 2 34.2423H33.9831C34.3973 34.2423 34.7331 33.9065 34.7331 33.4923C34.7331 33.0781 34.3973 32.7423 33.9831 32.7423H30.1048V11.7903C30.1048 11.1 29.5452 10.5403 28.8548 10.5403H16.4355C15.7451 10.5403 15.1855 11.1 15.1855 11.7903V32.7423H6.87903V7.69601L20.3468 3.05196V8.70968C20.3468 9.12389 20.6826 9.45968 21.0968 9.45968C21.511 9.45968 21.8468 9.12389 21.8468 8.70968V2.70131ZM28.6048 12.0403V32.7423H25.4597V26.2419C25.4597 25.5516 24.9 24.9919 24.2097 24.9919H21.0806C20.3903 24.9919 19.8306 25.5516 19.8306 26.2419V32.7423H16.6855V12.0403H28.6048ZM21.3306 32.7423H23.9597V26.4919H21.3306V32.7423Z" fill="#1B2223"/>
<path fill-rule="evenodd" clip-rule="evenodd" d="M18.2822 14.9032C18.2822 14.489 18.618 14.1532 19.0322 14.1532H26.258C26.6722 14.1532 27.008 14.489 27.008 14.9032C27.008 15.3174 26.6722 15.6532 26.258 15.6532H19.0322C18.618 15.6532 18.2822 15.3174 18.2822 14.9032Z" fill="#D1362F"/>
<path fill-rule="evenodd" clip-rule="evenodd" d="M18.2822 18C18.2822 17.5858 18.618 17.25 19.0322 17.25H26.258C26.6722 17.25 27.008 17.5858 27.008 18C27.008 18.4142 26.6722 18.75 26.258 18.75H19.0322C18.618 18.75 18.2822 18.4142 18.2822 18Z" fill="#D1362F"/>
<path fill-rule="evenodd" clip-rule="evenodd" d="M18.2822 21.0968C18.2822 20.6826 18.618 20.3468 19.0322 20.3468H26.258C26.6722 20.3468 27.008 20.6826 27.008 21.0968C27.008 21.511 26.6722 21.8468 26.258 21.8468H19.0322C18.618 21.8468 18.2822 21.511 18.2822 21.0968Z" fill="#D1362F"/>
</svg>
