<svg width="35" height="35" viewBox="0 0 35 35" fill="none" xmlns="http://www.w3.org/2000/svg">
<path fill-rule="evenodd" clip-rule="evenodd" d="M13.6686 25.7692C14.0722 25.8623 14.3239 26.265 14.2307 26.6686L12.9427 32.25H21.0573L19.7693 26.6686C19.6761 26.265 19.9278 25.8623 20.3314 25.7692C20.735 25.6761 21.1377 25.9277 21.2309 26.3314L22.5967 32.25H26C26.4142 32.25 26.75 32.5858 26.75 33C26.75 33.4142 26.4142 33.75 26 33.75H22.0151C22.0046 33.7502 21.9942 33.7502 21.9837 33.75H12.0163C12.0058 33.7502 11.9954 33.7502 11.9849 33.75H8C7.58579 33.75 7.25 33.4142 7.25 33C7.25 32.5858 7.58579 32.25 8 32.25H11.4033L12.7691 26.3314C12.8623 25.9277 13.265 25.6761 13.6686 25.7692Z" fill="#1B2223"/>
<rect x="1" y="24" width="32" height="3" fill="#DBE1E4"/>
<path fill-rule="evenodd" clip-rule="evenodd" d="M32 4.5H2C1.72386 4.5 1.5 4.72386 1.5 5V26C1.5 26.2761 1.72386 26.5 2 26.5H32C32.2761 26.5 32.5 26.2761 32.5 26V5C32.5 4.72386 32.2761 4.5 32 4.5ZM2 3C0.895431 3 0 3.89543 0 5V26C0 27.1046 0.89543 28 2 28H32C33.1046 28 34 27.1046 34 26V5C34 3.89543 33.1046 3 32 3H2Z" fill="#1B2223"/>
<path d="M17.0379 21.0206C18.0702 21.0206 18.9071 20.1837 18.9071 19.1514C18.9071 18.1191 18.0702 17.2822 17.0379 17.2822C16.0056 17.2822 15.1687 18.1191 15.1687 19.1514C15.1687 20.1837 16.0056 21.0206 17.0379 21.0206Z" fill="#D1362F"/>
<path d="M21.5051 14.6479C21.4774 14.6194 21.4481 14.5939 21.4196 14.5677L21.3356 14.4884C21.3218 14.4737 21.3064 14.463 21.2886 14.4491C18.8716 12.2532 15.1725 12.3403 12.8656 14.6471L12.5952 14.9183L12.2207 15.2928C11.7646 15.7489 11.7669 16.4924 12.2238 16.9493C12.6815 17.4078 13.425 17.4085 13.8804 16.9524L14.526 16.3067C15.9931 14.8405 18.3793 14.8405 19.8455 16.306L20.3116 16.7575C20.7632 17.209 21.4997 17.2082 21.9536 16.7536C22.1732 16.5348 22.2941 16.2428 22.2949 15.9323C22.2957 15.6233 22.1762 15.3313 21.9566 15.1133L21.5051 14.6479Z" fill="#D1362F"/>
<path d="M24.6896 12.3372L24.3013 11.9489C24.2997 11.9473 24.299 11.945 24.2959 11.9442L23.9892 11.636C23.9353 11.5829 23.8767 11.5366 23.8151 11.4966C19.8756 8.03785 13.8835 8.14418 10.0695 11.8133C10.0511 11.8302 10.0302 11.8418 10.0118 11.8603L9.31061 12.5622C8.89454 12.9775 8.89686 13.6532 9.31523 14.0716C9.73284 14.4892 10.4086 14.4922 10.8246 14.0754L11.5258 13.375C11.5304 13.3689 11.5342 13.3635 11.5389 13.3596C14.6231 10.3801 19.5158 10.3616 22.6247 13.2988L23.1764 13.8512C23.5916 14.2665 24.2689 14.265 24.6865 13.8473C25.1033 13.429 25.1049 12.7525 24.6896 12.3372Z" fill="#D1362F"/>
</svg>
