<svg width="41" height="38" viewBox="0 0 41 38" fill="none" xmlns="http://www.w3.org/2000/svg">
<path d="M31.3574 23.1757L37.6139 16.438L39.0577 18.3631L32.8012 25.1008L31.3574 23.1757Z" fill="#DBE1E4"/>
<path d="M9.21856 20.4937L3.92489 15.9567L2.2393 17.8395L7.2935 22.4188L9.21856 20.4937Z" fill="#DBE1E4"/>
<path d="M39.5389 17.6721C39.538 17.1022 39.3704 16.5242 38.9998 16.0478L36.0254 12.242C35.5272 11.6094 34.7692 11.2873 34.0117 11.286C33.5608 11.286 33.1018 11.4016 32.6962 11.6545L29.796 13.4589C29.491 13.6534 28.9681 13.7869 28.463 13.7835C28.0706 13.7852 27.6914 13.7066 27.441 13.583L24.601 12.2073C24.1429 11.9867 23.6322 11.8963 23.1187 11.8955C22.3812 11.8989 21.6343 12.0802 21.0341 12.4961L20.7027 12.7286C20.4378 12.5964 20.033 12.395 19.5745 12.1668C19.0246 11.8972 18.378 11.7885 17.7249 11.7864C17.1349 11.7881 16.5451 11.879 16.0272 12.0977L14.0927 12.9232C13.7779 13.0597 13.2771 13.1488 12.7797 13.1466C12.2824 13.1488 11.7825 13.0596 11.4676 12.9232L9.53146 12.0973C9.17829 11.9467 8.80077 11.8823 8.42663 11.8819C7.99581 11.8823 7.56756 11.9672 7.16952 12.1285C6.77199 12.2906 6.40298 12.5299 6.10912 12.8583L2.58398 16.8062C2.19327 17.2425 1.9992 17.7919 2 18.3328C1.9992 18.9778 2.27517 19.6248 2.80746 20.0783L6.09577 22.8837L4.53586 24.511C4.10585 24.9598 3.89176 25.5417 3.89176 26.117C3.89095 26.7291 4.13407 27.3472 4.61563 27.8023L4.93207 28.103C5.23025 28.3858 5.58856 28.5657 5.96351 28.6617C5.77545 29.0076 5.67266 29.3869 5.67346 29.7669C5.67266 30.3795 5.91578 30.9971 6.39645 31.4527L6.71304 31.7543C7.16483 32.1825 7.75049 32.3958 8.32751 32.3954C8.63764 32.3959 8.94814 32.3336 9.23995 32.2116C9.34237 32.6271 9.5539 33.022 9.88662 33.3377L10.204 33.6397C10.6558 34.0679 11.2405 34.2812 11.8185 34.2808C12.2703 34.2813 12.7241 34.1481 13.1148 33.8897C13.2291 34.2574 13.4249 34.6058 13.7231 34.8891L14.0405 35.1911C14.4913 35.6193 15.077 35.8326 15.6541 35.8322C16.2687 35.8327 16.8895 35.5912 17.3479 35.1126L18.7266 33.6729L20.5996 35.4065C21.048 35.8223 21.6235 36.0292 22.1915 36.028C22.8156 36.0293 23.4452 35.7793 23.9046 35.2875L24.2036 34.9671C24.4617 34.6899 24.6302 34.3618 24.7279 34.0194L25.4534 34.6891C25.9026 35.1032 26.4773 35.3093 27.0445 35.3088C27.6694 35.3093 28.3008 35.0592 28.7606 34.5671L29.0579 34.2471C29.4013 33.8803 29.5945 33.4259 29.6542 32.9619C29.8457 33.011 30.0398 33.0442 30.2356 33.0442C30.8604 33.0442 31.49 32.7947 31.9503 32.3029L32.2485 31.983C32.6652 31.5363 32.8726 30.9635 32.8717 30.3987C32.8717 30.2234 32.8466 30.049 32.8077 29.8766C33.326 29.8079 33.8285 29.5767 34.2106 29.1664L34.5096 28.846C34.9264 28.3994 35.1328 27.8265 35.1328 27.2613C35.1336 26.6395 34.8829 26.0119 34.3881 25.5547L33.8289 25.0382L38.8759 19.4579C39.3291 18.9556 39.5381 18.3089 39.5389 17.6721ZM6.54675 27.4743C6.27936 27.4735 6.01784 27.3779 5.8135 27.1843L5.49654 26.8836C5.27725 26.6763 5.16896 26.4004 5.16808 26.1171C5.16896 25.8514 5.26405 25.592 5.45989 25.3876L8.6548 22.0536C8.86295 21.8365 9.14068 21.7277 9.42559 21.7274C9.69218 21.7278 9.95282 21.8238 10.1588 22.0178L10.4745 22.319C10.4745 22.319 10.8013 22.8022 10.8021 23.0859C10.8013 23.2983 10.7373 23.5052 10.6131 23.6844C10.6025 23.695 7.16483 27.2777 7.16483 27.2777C6.98226 27.4069 6.76642 27.4734 6.54675 27.4743ZM9.09837 30.7998C8.89066 31.0161 8.61337 31.1244 8.32846 31.1253C8.06107 31.1248 7.80035 31.0289 7.5952 30.8352L7.27781 30.5336C7.06027 30.3271 6.95022 30.0499 6.95022 29.7666C6.95022 29.5009 7.0462 29.2415 7.24108 29.0372C7.24108 29.0372 11.4998 24.604 11.5357 24.5613C11.7392 24.3655 12.0015 24.2644 12.2723 24.2639C12.5397 24.2644 12.8004 24.3599 13.0056 24.554L13.323 24.856C13.5413 25.0625 13.6497 25.3389 13.6505 25.6225C13.6497 25.8882 13.5538 26.148 13.3587 26.3523L9.09837 30.7998ZM12.5888 32.6847C12.3816 32.9015 12.1043 33.0099 11.8194 33.0107C11.552 33.0103 11.2912 32.9143 11.0861 32.7202L10.7678 32.4186C10.5495 32.2117 10.4402 31.9354 10.4402 31.6521C10.4402 31.415 10.5209 31.185 10.6752 30.9935L13.6411 27.8979C13.8412 27.7175 14.0919 27.6224 14.3518 27.6224C14.6192 27.6228 14.8799 27.7183 15.085 27.9124L15.4033 28.2144C15.6208 28.4209 15.7301 28.6973 15.7309 28.9805C15.73 29.2467 15.6332 29.5065 15.4391 29.7103L12.5888 32.6847ZM18.2242 32.358L16.4245 34.2362C16.2172 34.4529 15.9395 34.5613 15.6546 34.5621C15.3872 34.5617 15.1265 34.4657 14.9214 34.2717L14.604 33.97C14.3864 33.7636 14.2772 33.4868 14.2764 33.2035C14.2772 32.9373 14.3732 32.6775 14.5682 32.474L16.3671 30.5958C16.5752 30.3792 16.8529 30.2704 17.1379 30.27C17.4044 30.2704 17.666 30.3659 17.8711 30.5604L18.1894 30.8621C18.4069 31.0685 18.5153 31.3449 18.5162 31.6282C18.5151 31.8943 18.4192 32.1541 18.2242 32.358ZM33.8584 27.263C33.8581 27.5239 33.7646 27.7794 33.5752 27.9824L33.277 28.3024C33.0689 28.5251 32.7864 28.6377 32.4973 28.6381C32.2349 28.6377 31.9781 28.5455 31.7743 28.3571L26.7494 23.7101L25.8805 24.6404L31.259 29.6231C31.483 29.8304 31.5955 30.1119 31.5972 30.3994C31.5955 30.6613 31.5029 30.9164 31.314 31.1195L31.0167 31.4394C30.8085 31.6621 30.5261 31.7743 30.2369 31.7752C29.9746 31.7744 29.717 31.6818 29.5148 31.4945L24.4886 26.8476L23.6206 27.7779L28.0811 31.9028C28.2961 32.1088 28.4062 32.3831 28.4062 32.6646C28.4062 32.9257 28.3136 33.1811 28.1246 33.3838L27.8265 33.7037C27.6191 33.9264 27.3359 34.039 27.0459 34.0398C26.7827 34.039 26.5259 33.9464 26.3229 33.7592L21.8713 29.6492L21.8697 29.6484L21.0034 30.5805L21.0043 30.5813L21.0209 30.597L23.2505 32.6548C23.4481 32.8578 23.5504 33.118 23.5512 33.3871C23.5504 33.6469 23.4586 33.9011 23.2697 34.1038L22.9715 34.4242C22.7633 34.6468 22.4818 34.7586 22.1934 34.7594C21.9311 34.7586 21.6743 34.6665 21.4712 34.4784L19.53 32.6809C19.6989 32.3495 19.7932 31.9898 19.7932 31.629C19.794 31.0168 19.5509 30.3996 19.0702 29.9437L18.752 29.6417C18.3011 29.2138 17.7163 29.0002 17.1392 29.001C17.0944 29.001 17.0492 29.0112 17.0053 29.0138C17.0053 29.0032 17.0078 28.992 17.0078 28.9814C17.0086 28.3692 16.2848 27.2952 16.2848 27.2952L15.9674 26.9941C15.63 26.6741 15.2183 26.4746 14.7901 26.3944C14.8784 26.1444 14.9283 25.8842 14.9283 25.6236C14.9283 25.0114 14.686 24.3937 14.2053 23.9383L13.888 23.6363C13.4362 23.208 12.8515 22.9943 12.2743 22.9947C12.2069 22.9947 12.1404 23.0084 12.0734 23.0144C12.0551 22.4266 11.8183 21.8392 11.3577 21.4016L11.0412 21.1005C10.5894 20.6718 10.0047 20.4581 9.4275 20.4585C8.81192 20.4581 8.19216 20.6995 7.7337 21.1781L6.97955 21.9651L3.63874 19.1157C3.39862 18.9101 3.27874 18.626 3.27786 18.3343C3.27867 18.0898 3.36189 17.8505 3.53932 17.6518L7.06438 13.704C7.20427 13.547 7.41117 13.405 7.65349 13.3064C7.89581 13.2079 8.1709 13.1537 8.4281 13.1541C8.65208 13.1541 8.86229 13.1947 9.03041 13.2672L10.9657 14.093C11.5113 14.3229 12.1447 14.4172 12.7812 14.4192C13.4185 14.4171 14.0511 14.3228 14.5967 14.093L16.5311 13.2675C16.8293 13.1375 17.2793 13.0568 17.7267 13.0585C18.2216 13.0555 18.7172 13.1579 19.0047 13.3046C19.1872 13.3955 19.3604 13.4817 19.5212 13.5623L17.5484 14.9491C16.9145 15.3949 16.5728 16.1038 16.5737 16.8191C16.5729 17.2926 16.7229 17.7746 17.0284 18.1837L17.0276 18.1828L17.2882 18.533C17.783 19.1908 18.5546 19.529 19.3258 19.5307C19.7613 19.5307 20.205 19.4206 20.6004 19.1834L21.7802 18.4749C22.0208 18.3277 22.3842 18.2348 22.76 18.2365C23.2015 18.2339 23.6464 18.3645 23.9138 18.561L27.1779 20.9011C27.9043 21.4215 29.0875 22.3869 29.7432 22.9943L33.5212 26.4874C33.7449 26.6948 33.8575 26.9751 33.8584 27.263ZM37.9287 18.6088L32.8957 24.1741L30.6106 22.0618C29.8948 21.401 28.7146 20.4375 27.9229 19.8688L24.6597 17.5287C24.1064 17.1368 23.4291 16.9673 22.7594 16.9648C22.1895 16.9665 21.6153 17.0907 21.1197 17.3858L19.9407 18.0944C19.7599 18.2031 19.5466 18.2586 19.3252 18.259C18.9292 18.2604 18.533 18.0756 18.3121 17.7748L18.0523 17.4251L18.0515 17.4242C17.9133 17.2379 17.8489 17.0288 17.8479 16.8172C17.8496 16.4973 17.9972 16.1868 18.2831 15.985L21.7715 13.534C22.0731 13.3156 22.6097 13.1625 23.1194 13.1663C23.4735 13.1646 23.8117 13.2358 24.0433 13.3502L26.8833 14.7258C27.3675 14.9583 27.9139 15.0534 28.4637 15.0547C29.17 15.0513 29.8841 14.8978 30.4724 14.5365L33.3734 12.7317C33.5586 12.6162 33.7808 12.5564 34.0125 12.5564C34.4041 12.5556 34.7965 12.733 35.0187 13.0227L37.993 16.8285C38.1645 17.0464 38.2639 17.3539 38.2639 17.6726C38.2644 18.029 38.1385 18.3797 37.9287 18.6088Z" fill="#1B2223" stroke="#1B2223" stroke-width="0.2"/>
<path fill-rule="evenodd" clip-rule="evenodd" d="M21.2881 1.99998C21.2881 1.44769 20.8404 0.999977 20.2881 0.999977C19.7358 0.999977 19.2881 1.44769 19.2881 1.99998V8.25646C19.2881 8.80874 19.7358 9.25646 20.2881 9.25646C20.8404 9.25646 21.2881 8.80874 21.2881 8.25646V1.99998ZM29.2223 5.06482C29.5859 4.64918 29.5438 4.01742 29.1282 3.65374C28.7125 3.29006 28.0808 3.33218 27.7171 3.74781L24.3482 7.59796C23.9845 8.01359 24.0267 8.64535 24.4423 9.00904C24.8579 9.37272 25.4897 9.3306 25.8534 8.91496L29.2223 5.06482ZM11.8353 5.06483C11.4716 4.64919 11.5138 4.01743 11.9294 3.65375C12.345 3.29007 12.9768 3.33219 13.3405 3.74782L16.7094 7.59797C17.073 8.0136 17.0309 8.64536 16.6153 9.00905C16.1996 9.37273 15.5679 9.33061 15.2042 8.91497L11.8353 5.06483Z" fill="#D1362F"/>
</svg>
