<svg width="30" height="31" viewBox="0 0 30 31" fill="none" xmlns="http://www.w3.org/2000/svg">
<path fill-rule="evenodd" clip-rule="evenodd" d="M15 30.5C23.2843 30.5 30 23.7843 30 15.5C30 7.21573 23.2843 0.5 15 0.5C6.71576 0.5 3.05176e-05 7.21573 3.05176e-05 15.5C3.05176e-05 23.7843 6.71576 30.5 15 30.5ZM15 10.55C15.971 10.55 16.8814 10.8059 17.6654 11.2529L18.9968 10.1125C17.7911 9.18396 16.649 8.8 15 8.8C11.3766 8.8 8.38669 11.472 7.94962 14.925H6.8897C6.18032 14.925 5.7572 15.7039 6.15069 16.2854L8.04382 19.0829C8.39538 19.6025 9.17027 19.6025 9.52183 19.0829L11.415 16.2854C11.8084 15.7039 11.3853 14.925 10.6759 14.925H9.74468C10.1675 12.442 12.3595 10.55 15 10.55ZM15 22.8C13.3511 22.8 12.2089 22.416 11.0033 21.4875L12.3346 20.3471C13.1186 20.7941 14.029 21.05 15 21.05C17.6406 21.05 19.8325 19.158 20.2554 16.675H19.3241C18.6147 16.675 18.1916 15.8961 18.5851 15.3146L20.4782 12.5171C20.8298 11.9975 21.6047 11.9975 21.9562 12.5171L23.8494 15.3146C24.2429 15.8961 23.8197 16.675 23.1104 16.675H22.0504C21.6134 20.128 18.6234 22.8 15 22.8Z" fill="white"/>
</svg>
