<svg width="23" height="28" viewBox="0 0 23 28" fill="none" xmlns="http://www.w3.org/2000/svg">
<path d="M13 9.5L13.5 3L20.5 9.5H13Z" fill="#DBE1E4"/>
<path fill-rule="evenodd" clip-rule="evenodd" d="M2 2.25C1.86193 2.25 1.75 2.36193 1.75 2.5V25.5C1.75 25.6381 1.86193 25.75 2 25.75H11.5C11.9142 25.75 12.25 26.0858 12.25 26.5C12.25 26.9142 11.9142 27.25 11.5 27.25H2C1.0335 27.25 0.25 26.4665 0.25 25.5V2.5C0.25 1.5335 1.0335 0.75 2 0.75H13.3107L22.25 9.68934V15C22.25 15.4142 21.9142 15.75 21.5 15.75C21.0858 15.75 20.75 15.4142 20.75 15V10.75H12.25V2.25H2ZM13.75 3.31066L19.6893 9.25H13.75V3.31066Z" fill="#1B2223"/>
<path fill-rule="evenodd" clip-rule="evenodd" d="M16.5059 16.9356C16.7886 16.6881 17.2108 16.6881 17.4936 16.9356L21.4936 20.4356L20.5059 21.5644L17.7497 19.1528V26.5H16.2497V19.1528L13.4936 21.5644L12.5059 20.4356L16.5059 16.9356Z" fill="#D1362F"/>
</svg>
