<svg width="3" height="36" viewBox="0 0 3 36" fill="none" xmlns="http://www.w3.org/2000/svg">
<path d="M1.5 36C2.32843 36 3 35.3284 3 34.5C3 33.6716 2.32843 33 1.5 33C0.671573 33 0 33.6716 0 34.5C0 35.3284 0.671573 36 1.5 36Z" fill="#BE2530"/>
<path d="M1.5 12C2.32843 12 3 11.3284 3 10.5C3 9.67157 2.32843 9 1.5 9C0.671573 9 0 9.67157 0 10.5C0 11.3284 0.671573 12 1.5 12Z" fill="white"/>
<path d="M1.5 3C2.32843 3 3 2.32843 3 1.5C3 0.671573 2.32843 0 1.5 0C0.671573 0 0 0.671573 0 1.5C0 2.32843 0.671573 3 1.5 3Z" fill="white"/>
<path d="M1.5 21C2.32843 21 3 20.3284 3 19.5C3 18.6716 2.32843 18 1.5 18C0.671573 18 0 18.6716 0 19.5C0 20.3284 0.671573 21 1.5 21Z" fill="white"/>
<path d="M1.5 30C2.32843 30 3 29.3284 3 28.5C3 27.6716 2.32843 27 1.5 27C0.671573 27 0 27.6716 0 28.5C0 29.3284 0.671573 30 1.5 30Z" fill="white"/>
</svg>
