<svg width="35" height="35" viewBox="0 0 35 35" fill="none" xmlns="http://www.w3.org/2000/svg">
<path d="M24.5592 29H10.5L11.5 31L14 32.5H27.5L30 31.5L35 17.5L32.5 13L28.3772 26.1931C27.8553 27.863 26.3088 29 24.5592 29Z" fill="#DBE1E4"/>
<path d="M35 20.7812C35 19.9048 34.6514 19.0881 34.0506 18.4857C34.7317 17.7406 35.0788 16.7416 34.9839 15.7018C34.8133 13.8482 33.1435 12.3957 31.1806 12.3957H22.1725C22.6187 11.0409 23.3333 8.55744 23.3333 6.56244C23.3333 3.39931 20.6456 0.729126 18.9583 0.729126C17.4446 0.729126 16.361 1.58225 16.3158 1.61725C16.1422 1.75582 16.0416 1.96582 16.0416 2.18744V7.13262L11.8402 16.2312L11.6666 16.3201V16.0416C11.6666 15.6391 11.3399 15.3124 10.9374 15.3124H3.64581C1.63481 15.3124 0 16.9473 0 18.9582V30.6249C0 32.636 1.63481 34.2707 3.64581 34.2707H8.02081C9.59725 34.2707 10.9447 33.2645 11.4522 31.8601C12.6656 32.4843 14.2989 32.8124 15.3125 32.8124H28.6986C30.2867 32.8124 31.6765 31.742 32.0031 30.2662C32.1708 29.5049 32.0731 28.7393 31.7406 28.0743C32.8169 27.5332 33.5417 26.4206 33.5417 25.1562C33.5417 24.6399 33.4236 24.1456 33.2004 23.6993C34.2767 23.1568 35 22.0456 35 20.7812ZM31.9244 22.5807C31.6429 22.6143 31.4052 22.8053 31.3148 23.0751C31.2259 23.3449 31.3003 23.6409 31.5073 23.8364C31.8778 24.1849 32.0834 24.6545 32.0834 25.1562C32.0834 26.0764 31.3878 26.8493 30.4676 26.9557C30.1861 26.9893 29.9484 27.1803 29.858 27.4501C29.7691 27.7199 29.8434 28.0159 30.0505 28.2114C30.5303 28.6634 30.7228 29.2978 30.5784 29.9512C30.3991 30.7649 29.6086 31.3541 28.6986 31.3541H15.3125C14.1283 31.3541 12.1421 30.7985 11.4538 30.1087C11.2452 29.9016 10.9302 29.8404 10.6589 29.9512C10.3863 30.0635 10.2083 30.3304 10.2083 30.6249C10.2083 31.831 9.22688 32.8124 8.02081 32.8124H3.64581C2.43975 32.8124 1.45831 31.831 1.45831 30.6249V18.9582C1.45831 17.7522 2.43975 16.7707 3.64581 16.7707H10.2083V17.4999C10.2083 17.7523 10.3396 17.987 10.5554 18.1212C10.7683 18.2495 11.0366 18.2626 11.2641 18.1518L12.7224 17.4226C12.8697 17.3497 12.9879 17.2272 13.0579 17.077L17.4329 7.59781C17.4766 7.50156 17.4999 7.39656 17.4999 7.29156V2.58262C17.8033 2.41494 18.3298 2.18744 18.9583 2.18744C19.7575 2.18744 21.875 4.17369 21.875 6.56244C21.875 9.12913 20.4779 12.8289 20.4648 12.8654C20.3803 13.0885 20.4094 13.3408 20.545 13.5391C20.6821 13.736 20.9067 13.8541 21.1458 13.8541H31.1806C32.3969 13.8541 33.4294 14.7248 33.5314 15.836C33.6087 16.6673 33.2091 17.4577 32.4931 17.8996C32.27 18.0366 32.1373 18.2846 32.1475 18.5485C32.1577 18.8124 32.3094 19.0487 32.5427 19.1698C33.1596 19.4833 33.5416 20.1016 33.5416 20.7812C33.5417 21.7014 32.8461 22.4743 31.9244 22.5807Z" fill="#1B2223"/>
<path d="M10.9377 16.7708C10.5352 16.7708 10.2085 17.0975 10.2085 17.5V30.625C10.2085 31.0275 10.5352 31.3542 10.9377 31.3542C11.3402 31.3542 11.6669 31.0275 11.6669 30.625V17.5C11.6669 17.0975 11.3402 16.7708 10.9377 16.7708Z" fill="#1B2223"/>
<path d="M5 29C5 27.8954 5.89543 27 7 27C8.10457 27 9 27.8954 9 29C9 30.1046 8.10457 31 7 31C5.89543 31 5 30.1046 5 29Z" fill="#D1362F"/>
</svg>
